<?xml version="1.0" encoding="UTF-8"?>
<!DOCTYPE svg PUBLIC "-//W3C//DTD SVG 1.1//EN" "http://www.w3.org/Graphics/SVG/1.1/DTD/svg11.dtd">
<!-- Creator: CorelDRAW 2019 (64-Bit) -->
<svg xmlns="http://www.w3.org/2000/svg" xml:space="preserve" width="2.07589in" height="1.69671in" version="1.1" style="shape-rendering:geometricPrecision; text-rendering:geometricPrecision; image-rendering:optimizeQuality; fill-rule:evenodd; clip-rule:evenodd"
viewBox="0 0 1013.31 828.22"
 xmlns:xlink="http://www.w3.org/1999/xlink"
 xmlns:xodm="http://www.corel.com/coreldraw/odm/2003">
 <defs>
  <style type="text/css">
   <![CDATA[
    .fil1 {fill:#373435}
    .fil0 {fill:#2943B3}
    .fil3 {fill:#395BF5}
    .fil2 {fill:white}
   ]]>
  </style>
 </defs>
 <g id="Layer_x0020_1">
  <metadata id="CorelCorpID_0Corel-Layer"/>
  <g id="_2174537007136">
   <ellipse class="fil0" cx="535.44" cy="417.14" rx="477.87" ry="411.08"/>
   <path class="fil1" d="M730.4 797.72c-1.3,0.59 -2.6,1.19 -3.91,1.76l-12.41 -0.78c-51.95,-3.27 -85.92,-8.77 -148.23,-49.84 -25.41,1.74 -50.82,3.48 -76.23,5.22 -250.01,17.13 -453.53,-166.27 -453.53,-371.36 0,-205.1 203.05,-371.36 453.53,-371.36 250.48,0 453.53,166.27 453.53,371.36 0,154.9 -112.2,303.78 -280.41,343.35 -13.75,3.23 23.55,54.43 67.65,71.65z"/>
   <path class="fil2" d="M453.53 742.73c25.46,-0.59 50.82,-3.48 76.23,-5.22 62.31,41.07 96.27,46.57 148.23,49.84l23.42 1.47 0 0c-47.09,-14.08 -89.23,-70.7 -74.76,-74.11 168.21,-39.57 280.41,-188.45 280.41,-343.35 0,-205.1 -203.05,-371.36 -453.53,-371.36 -250.48,0 -454.6,172.14 -453.53,371.36 1.07,199.22 205.6,377.11 453.53,371.36z"/>
  </g>
  <ellipse class="fil3" cx="158.51" cy="386.24" rx="41.51" ry="41.74"/>
  <ellipse class="fil3" cx="284.43" cy="386.24" rx="41.51" ry="41.74"/>
  <ellipse class="fil3" cx="407.35" cy="386.24" rx="41.51" ry="41.74"/>
 </g>
</svg>
