<?xml version="1.0" encoding="utf-8"?>
<svg width="145" height="145" viewBox="0 0 145 145" xmlns="http://www.w3.org/2000/svg">
  <defs>
    <style>
      .cls-1 {
        fill: url(#radial-gradient);
      }

      .cls-2 {
        fill: #fff;
        font-size: 80px;
        font-family: Nunito-Bold, Nunito;
        font-weight: 700;
      }

      .cls-3 {
        filter: url(#Rectangle_2);
      }
    </style>
  </defs>
  <g transform="matrix(0.244855, 0, 0, 0.244855, 244.59903, -13.792475)" style="">
    <path style="stroke: rgb(114, 190, 68); fill: rgb(114, 190, 68);" d="M -906.395 420.499 L -907.444 363.532 C -904.064 283.968 -834.592 277.669 -834.592 277.669 C -788.02 271.11 -766.247 293.211 -760.546 299.496 C -732.085 264.702 -674.459 279.777 -674.217 283.641 L -674.656 248.737 C -675.665 229.946 -659.105 216.376 -643.582 216.671 C -615.213 217.21 -613.889 248.533 -613.889 248.533 L -613.892 280.185 C -583.659 269.879 -536.392 285.37 -528.354 300.153 L -557.596 357.892 C -560.173 331.075 -614.3 317.668 -615.36 364.503 L -615.664 423.299 C -619.406 465.473 -671.732 458.64 -674.801 425.827 L -674.755 360.453 C -674.328 335.612 -726.67 320.713 -732.139 365.946 L -732.013 421.618 C -729.45 455.732 -786.869 469.327 -790.735 421.509 L -790.512 364.395 C -793.096 320.469 -850.906 330.488 -847.509 369.25 L -847.513 422.948 C -847.008 458.168 -904.598 467.382 -906.395 420.499 Z"/>
    <path style="fill: rgb(202, 104, 42); stroke: rgb(202, 104, 42);" d="M -530.937 296.79 C -558.331 298.788 -558.123 336.062 -558.092 336.22 L -557.889 426.293 C -555.866 462.477 -497.554 458.231 -499.312 426.791 L -499.144 356.125 C -499.51 328.493 -516.105 306.755 -530.937 296.79 Z"/>
    <path d="M -496.562 246.73 C -496.562 263.343 -510.709 276.811 -528.159 276.811 C -545.609 276.811 -559.754 263.343 -559.754 246.73 C -559.754 230.115 -545.609 216.648 -528.159 216.648 C -510.709 216.648 -496.562 230.115 -496.562 246.73 Z" style="stroke: rgb(202, 104, 42); fill: rgb(202, 104, 42);"/>
  </g>
</svg>